<svg xmlns="http://www.w3.org/2000/svg" viewBox="0 0 180 180">
  <defs>
    <linearGradient id="bg" x1="0%" y1="0%" x2="100%" y2="100%">
      <stop offset="0%" style="stop-color:#667eea"/>
      <stop offset="100%" style="stop-color:#764ba2"/>
    </linearGradient>
    <radialGradient id="marble1" cx="30%" cy="30%" r="70%">
      <stop offset="0%" style="stop-color:#ff9999"/>
      <stop offset="50%" style="stop-color:#e53935"/>
      <stop offset="100%" style="stop-color:#8b1a1a"/>
    </radialGradient>
    <radialGradient id="marble2" cx="30%" cy="30%" r="70%">
      <stop offset="0%" style="stop-color:#90caf9"/>
      <stop offset="50%" style="stop-color:#1e88e5"/>
      <stop offset="100%" style="stop-color:#0d47a1"/>
    </radialGradient>
    <radialGradient id="marble3" cx="30%" cy="30%" r="70%">
      <stop offset="0%" style="stop-color:#a5d6a7"/>
      <stop offset="50%" style="stop-color:#43a047"/>
      <stop offset="100%" style="stop-color:#1b5e20"/>
    </radialGradient>
  </defs>
  <rect width="180" height="180" rx="35" fill="url(#bg)"/>
  <path d="M 25 45 Q 90 15 155 45 Q 125 95 90 115 Q 55 95 25 135"
        fill="none" stroke="#8B4513" stroke-width="18" stroke-linecap="round"/>
  <path d="M 25 45 Q 90 15 155 45 Q 125 95 90 115 Q 55 95 25 135"
        fill="none" stroke="#A0522D" stroke-width="12" stroke-linecap="round"/>
  <circle cx="55" cy="42" r="16" fill="url(#marble1)" stroke="#5d1a1a" stroke-width="2"/>
  <ellipse cx="48" cy="36" rx="5" ry="3" fill="rgba(255,255,255,0.4)"/>
  <circle cx="105" cy="75" r="16" fill="url(#marble2)" stroke="#0d47a1" stroke-width="2"/>
  <ellipse cx="98" cy="69" rx="5" ry="3" fill="rgba(255,255,255,0.4)"/>
  <circle cx="65" cy="118" r="16" fill="url(#marble3)" stroke="#1b5e20" stroke-width="2"/>
  <ellipse cx="58" cy="112" rx="5" ry="3" fill="rgba(255,255,255,0.4)"/>
</svg>
